<?xml version="1.0" encoding="utf-8"?>
<?xml-stylesheet type="text/xsl" href="rss1.xsl"?>
<rss version="2.0" xmlns:atom="http://www.w3.org/2005/Atom" xmlns:content="http://purl.org/rss/1.0/modules/content/" xmlns:dc="http://purl.org/dc/elements/1.1/" xmlns:media="http://search.yahoo.com/mrss/">
<channel>
 <title>Getty</title>
 <link>http://www.gettyimg.com/</link>
 <atom:link href="http://www.gettyimg.com/" rel="self" type="application/rss+xml" />

 
                <item>
                <title><![CDATA[【Music Videos】Doja Cat - MASC (feat. Teezo Touchdown) [Apple Music Web-DL]]]></title>
                <link><![CDATA[https://sharemania.us/threads/doja-cat-masc-feat-teezo-touchdown-apple-music-web-dl.241547/]]></link>
                <description><![CDATA[<article>
<blockquote class="messageText SelectQuoteContainer ugc baseHtml">
<img src="https://i.ibb.co/61cYZdZ/Doja-Cat-MASC-feat-Teezo-Touchdown-mkv-thumbs.png" class="bbCodeImage LbImage" alt="[​IMG]" data-url="https://i.ibb.co/61cYZdZ/Doja-Cat-MASC-feat-Teezo-Touchdown-mkv-thumbs.png" style=""> <br>
<br>
<span style="color: #ff0000"><b>Screenshots:</b><br>
<b><img src="https://i.ibb.co/bHT7dcT/Doja-Cat-MASC-feat-Teezo-Touchdown-mkv-snapshot-00-06-589.png" class="bbCodeImage LbImage" alt="[​IMG]" data-url="https://i.ibb.co/bHT7dcT/Doja-Cat-MASC-feat-Teezo-Touchdown-mkv-snapshot-00-06-589.png" style=""> <img src="https://i.ibb.co/84DThhv/Doja-Cat-MASC-feat-Teezo-Touchdown-mkv-snapshot-01-12-614.png" class="bbCodeImage LbImage" alt="[​IMG]" data-url="https://i.ibb.co/84DThhv/Doja-Cat-MASC-feat-Teezo-Touchdown-mkv-snapshot-01-12-614.png" style=""> </b><br>
</span><br>
<span style="color: #000000">
<div class="ToggleTriggerAnchor bbCodeSpoilerContainer">
<button type="button" class="button bbCodeSpoilerButton ToggleTrigger Tooltip JsOnly" data-target="> .SpoilerTarget"><span>Spoiler: <span class="SpoilerTitle">MEDIAINFO</span></span></button>
<div class="SpoilerTarget bbCodeSpoilerText">General<br>
Format : MPEG-4<br>
Format profile : Base Media<br>
Codec ID : isom (isom/iso4)<br>
File size : 255 MiB<br>
Duration : 3 min 26 s<br>
Overall bit rate mode : Variable<br>
Overall bit rate : 10.4 Mb/s<br>
Frame rate : 23.976 FPS<br>
Movie name : MASC (feat. Teezo Touchdown)<br>
Performer : Doja Cat<br>
Genre : Rap<br>
ContentType : Music Video<br>
Encoded date : 2024-04-06 05:52:47 UTC<br>
Tagged date : 2024-04-06 05:52:47 UTC<br>
Copyright : ℗ (C) 2024 Kemosabe Records/RCA Records<br>
Cover : Yes<br>
Rating : Explicit<br>
GenreID : 1809<br>
AppleStoreCountry : United States<br>
AlbumTitleID : 830588310<br>
AppleStoreCatalogID : 1739449294<br>
FileExtension_Invalid : braw mov mp4 m4v m4a m4b m4p m4r 3ga 3gpa 3gpp 3gp 3gpp2 3g2 k3g jpm jpx mqv ismv isma ismt f4a f4b f4v<br>
<br>
Video<br>
ID : 2<br>
Format : AVC<br>
Format/Info : Advanced Video Codec<br>
Format profile : High@L4<br>
Format settings : CABAC / 4 Ref Frames<br>
Format settings, CABAC : Yes<br>
Format settings, Reference fra : 4 frames<br>
Format settings, GOP : M=2, N=79<br>
Codec ID : avc1<br>
Codec ID/Info : Advanced Video Coding<br>
Duration : 3 min 26 s<br>
Bit rate : 10.1 Mb/s<br>
Maximum bit rate : 23.3 Mb/s<br>
Width : 1 920 pixels<br>
Height : 1 080 pixels<br>
Display aspect ratio : 16:9<br>
Frame rate mode : Constant<br>
Frame rate : 23.976 (24000/1001) FPS<br>
Color space : YUV<br>
Chroma subsampling : 4:2:0<br>
Bit depth : 8 bits<br>
Scan type : Progressive<br>
Bits/(Pixel*Frame) : 0.203<br>
Stream size : 248 MiB (97%)<br>
Title : Core Media Video<br>
Encoded date : 2024-04-05 20:50:50 UTC<br>
Tagged date : 2024-04-06 05:52:48 UTC<br>
Color range : Limited<br>
Color primaries : BT.709<br>
Transfer characteristics : BT.709<br>
Matrix coefficients : BT.709<br>
Codec configuration box : avcC<br>
<br>
Audio<br>
ID : 1<br>
Format : AAC LC<br>
Format/Info : Advanced Audio Codec Low Complexity<br>
Codec ID : mp4a-40-2<br>
Duration : 3 min 26 s<br>
Duration_LastFrame : -10 ms<br>
Bit rate mode : Variable<br>
Bit rate : 265 kb/s<br>
Maximum bit rate : 390 kb/s<br>
Channel(s) : 2 channels<br>
Channel layout : L R<br>
Sampling rate : 48.0 kHz<br>
Frame rate : 46.875 FPS (1024 SPF)<br>
Compression mode : Lossy<br>
Stream size : 6.47 MiB (3%)<br>
Title : Core Media Audio<br>
Encoded date : 2024-04-05 20:50:37 UTC<br>
Tagged date : 2024-04-06 05:52:48 UTC</div>
</div></span><br>
<span style="color: #000000"><br>
<div class="bbCodeBlock bbCodeVfcHH HiddenContent">
<div class="attribution type">Hidden Content:</div>
<blockquote>You must reply before you can see the hidden data contained here.</blockquote>
</div></span>
<div class="messageTextEndMarker">&nbsp;</div>
</blockquote>
</article>]]></description>
                <author><![CDATA[Lalynsantiago]]></author>
                </item>

                </channel></rss>